<svg width="309" height="253" viewBox="0 0 309 253" fill="none" xmlns="http://www.w3.org/2000/svg">
<path d="M220.414 10.4424L304.008 43.5L178.008 92.5C165.508 88.3333 118.508 86 96.5078 78C74.5078 70 52.0078 56.5 43.5078 56L167.395 9.9026C184.528 3.52749 203.414 3.71978 220.414 10.4424Z" fill="#C80060" stroke="black" stroke-width="3" stroke-linejoin="round"/>
<path d="M298.008 144L245.508 122L182.508 132.5L139.508 117.5L45.0078 106L47.5078 158.5L166.508 188.5L298.008 144Z" fill="#C80060" stroke="black" stroke-width="3" stroke-linejoin="round"/>
<path d="M307.008 102.5V48C307.008 45.2386 304.769 43 302.008 43H298.805C298.277 43 297.752 43.0836 297.251 43.2476L166.508 86V149.5L307.008 102.5Z" fill="#EBDCA8" stroke="black" stroke-width="3" stroke-linejoin="round"/>
<path d="M307.008 203.5V149C307.008 146.239 304.769 144 302.008 144H298.834C298.287 144 297.744 144.09 297.226 144.266L167.008 188.5V251L307.008 203.5Z" fill="#EBDCA8" stroke="black" stroke-width="3" stroke-linejoin="round"/>
<path d="M63.5083 151.5C73.5083 160.3 136.342 180 166.508 188.5V251C153.342 247.667 115.709 235.1 70.5088 217.5C14.0088 195.5 -11.9912 127 9.50879 85.5003C26.7088 52.3003 60.0088 51.3336 74.5088 55.0003L166.508 85.5003V149C139.342 137.167 81.7083 114.1 68.5083 116.5C52.0083 119.5 51.0083 140.5 63.5083 151.5Z" fill="#E0B51D" stroke="black" stroke-width="3" stroke-linejoin="round"/>
</svg>
